<?xml version="1.0" standalone="no"?>
<!DOCTYPE svg PUBLIC "-//W3C//DTD SVG 20010904//EN"
 "http://www.w3.org/TR/2001/REC-SVG-20010904/DTD/svg10.dtd">
<svg version="1.0" xmlns="http://www.w3.org/2000/svg"
 width="512.000000pt" height="512.000000pt" viewBox="0 0 512.000000 512.000000"
 preserveAspectRatio="xMidYMid meet">

<g transform="translate(0.000000,512.000000) scale(0.100000,-0.100000)"
fill="#000000" stroke="none">
<path d="M3106 4630 c-126 -22 -240 -113 -299 -238 -29 -61 -32 -76 -32 -162
0 -87 3 -101 34 -167 80 -171 269 -270 444 -233 264 54 406 334 292 575 -77
162 -261 256 -439 225z m174 -171 c201 -91 197 -379 -7 -464 -49 -21 -149 -19
-198 4 -122 55 -181 205 -130 329 20 49 99 124 147 139 56 18 138 15 188 -8z"/>
<path d="M2363 3805 c-131 -29 -171 -58 -736 -553 -292 -255 -539 -474 -548
-486 -59 -70 -65 -199 -14 -281 62 -100 197 -139 305 -88 26 12 169 130 335
277 160 141 293 256 296 256 4 0 -113 -327 -259 -727 -237 -649 -266 -735
-266 -788 0 -67 26 -129 72 -173 104 -97 292 -78 364 38 15 25 92 221 169 435
78 215 144 392 146 395 4 4 132 -37 153 -50 9 -5 -50 -178 -221 -645 -206
-567 -232 -644 -232 -696 2 -156 155 -269 306 -225 78 23 131 74 166 161 15
39 185 503 377 1032 192 530 352 963 355 963 3 0 36 -69 73 -154 71 -161 100
-202 168 -237 48 -25 574 -103 632 -94 124 19 206 117 207 248 1 75 -19 128
-64 176 -46 48 -91 65 -272 101 -88 18 -172 39 -186 46 -22 11 -45 56 -129
256 -139 330 -180 414 -228 475 -49 62 -147 133 -222 163 -147 58 -461 169
-508 179 -69 14 -161 13 -239 -4z m501 -247 c215 -79 235 -88 293 -135 70 -56
99 -109 234 -430 71 -168 138 -318 150 -334 36 -51 95 -77 255 -109 82 -17
166 -35 186 -41 65 -17 97 -85 66 -142 -17 -33 -39 -46 -79 -47 -62 0 -517 69
-538 82 -22 13 -48 67 -202 425 -57 134 -106 243 -109 243 -3 0 -129 -339
-280 -752 -569 -1564 -598 -1642 -620 -1660 -30 -24 -81 -23 -108 2 -30 28
-37 66 -22 109 7 20 122 337 256 706 134 368 240 672 236 676 -12 10 -442 163
-446 158 -2 -2 -77 -204 -166 -449 -89 -245 -169 -459 -177 -477 -37 -79 -163
-57 -163 29 0 15 169 493 375 1060 268 736 384 1043 404 1068 32 40 99 81 151
91 57 11 105 -1 304 -73z m-643 -45 c-15 -38 -43 -112 -62 -166 l-34 -99 -384
-336 c-212 -185 -398 -347 -415 -359 -77 -58 -177 13 -135 97 12 24 1034 929
1050 930 4 0 -5 -30 -20 -67z"/>
</g>
</svg>
